<?xml version="1.0" encoding="UTF-8"?>
<svg id="Layer_1" data-name="Layer 1" xmlns="http://www.w3.org/2000/svg" xmlns:xlink="http://www.w3.org/1999/xlink" viewBox="0 0 1757.39 858.52">
  <defs>
    <radialGradient id="radial-gradient" cx="569.63" cy="319.46" fx="569.63" fy="319.46" r="1079.27" gradientUnits="userSpaceOnUse">
      <stop offset="0" stop-color="#d2e7d6"/>
      <stop offset=".23" stop-color="#c7e0cb"/>
      <stop offset=".6" stop-color="#bbdac1"/>
      <stop offset="1" stop-color="#b8d8be"/>
    </radialGradient>
  </defs>
  <g>
    <path d="M187.2,661.12h-87.6L0,356.32h92.4l55.2,214.8,56.4-214.8h82.8l56.4,214.8,55.2-214.8h92.4l-99.6,304.8h-87.6l-58.2-206.4-58.2,206.4Z" style="stroke-width: 0px;"/>
    <path d="M521.4,241.12h91.2v71.4h-91.2v-71.4ZM612.6,356.32v304.8h-91.2v-304.8h91.2Z" style="stroke-width: 0px;"/>
    <path d="M779.4,241.12v420h-91.2V241.12h91.2Z" style="stroke-width: 0px;"/>
    <path d="M1162.8,572.92c-24,86.4-102.6,99.6-158.4,99.6-40.2,0-163.8-8.4-163.8-164.4,0-105,71.4-163.2,171-163.2,149.4,0,154.8,132,157.2,169.2l.6,16.8h-234c0,29.4,14.4,80.4,73.2,80.4,26.4,0,54-11.4,61.8-38.4h92.4ZM1074.6,479.92c-1.8-65.4-42-73.8-64.2-73.8-54,0-73.2,42.6-75,73.8h139.2Z" style="stroke-width: 0px;"/>
    <path d="M1304.4,565.12c1.8,33.6,24.6,46.2,61.2,46.2,21,0,48-9,48-32.4,0-35.4-42-39.6-87.6-46.2-45-6.6-108-20.4-108-94.2,0-27,11.4-93.6,140.4-93.6,110.4,0,135,54.6,136.8,95.4h-82.8c-3-35.4-36-34.2-48-34.2-15.6,0-51.6,1.8-51.6,26.4,0,36,43.2,38.4,76.2,43.2,52.2,7.8,119.4,17.4,119.4,93,0,46.2-23.4,103.8-145.8,103.8-95.4,0-149.4-42.6-151.8-107.4h93.6Z" style="stroke-width: 0px;"/>
    <path d="M1591.19,566.32h99v94.8h-99v-94.8Z" style="stroke-width: 0px;"/>
  </g>
  <g>
    <path d="M187.2,661.12h-87.6L0,356.32h92.4l55.2,214.8,56.4-214.8h82.8l56.4,214.8,55.2-214.8h92.4l-99.6,304.8h-87.6l-58.2-206.4-58.2,206.4Z" style="fill: url(#radial-gradient); stroke-width: 0px;"/>
    <path d="M521.4,241.12h91.2v71.4h-91.2v-71.4ZM612.6,356.32v304.8h-91.2v-304.8h91.2Z" style="fill: url(#radial-gradient); stroke-width: 0px;"/>
    <path d="M779.4,241.12v420h-91.2V241.12h91.2Z" style="fill: url(#radial-gradient); stroke-width: 0px;"/>
    <path d="M1162.8,572.92c-24,86.4-102.6,99.6-158.4,99.6-40.2,0-163.8-8.4-163.8-164.4,0-105,71.4-163.2,171-163.2,149.4,0,154.8,132,157.2,169.2l.6,16.8h-234c0,29.4,14.4,80.4,73.2,80.4,26.4,0,54-11.4,61.8-38.4h92.4ZM1074.6,479.92c-1.8-65.4-42-73.8-64.2-73.8-54,0-73.2,42.6-75,73.8h139.2Z" style="fill: url(#radial-gradient); stroke-width: 0px;"/>
    <path d="M1304.4,565.12c1.8,33.6,24.6,46.2,61.2,46.2,21,0,48-9,48-32.4,0-35.4-42-39.6-87.6-46.2-45-6.6-108-20.4-108-94.2,0-27,11.4-93.6,140.4-93.6,110.4,0,135,54.6,136.8,95.4h-82.8c-3-35.4-36-34.2-48-34.2-15.6,0-51.6,1.8-51.6,26.4,0,36,43.2,38.4,76.2,43.2,52.2,7.8,119.4,17.4,119.4,93,0,46.2-23.4,103.8-145.8,103.8-95.4,0-149.4-42.6-151.8-107.4h93.6Z" style="fill: url(#radial-gradient); stroke-width: 0px;"/>
    <path d="M1591.19,566.32h99v94.8h-99v-94.8Z" style="fill: url(#radial-gradient); stroke-width: 0px;"/>
  </g>
</svg>